<?xml version="1.0" encoding="UTF-8"?>
<svg width="40px" height="80px" viewBox="0 0 40 80" version="1.1" xmlns="http://www.w3.org/2000/svg" xmlns:xlink="http://www.w3.org/1999/xlink">
    <!-- Generator: Sketch 42 (36781) - http://www.bohemiancoding.com/sketch -->
    <title>icAbout2</title>
    <desc>Created with Sketch.</desc>
    <defs></defs>
    <g id="Symbols" stroke="none" stroke-width="1" fill="none" fill-rule="evenodd">
        <g id="icAbout2" fill-rule="nonzero" fill="#FFFFFF">
            <path d="M20,28 C15.581722,28 12,24.418278 12,20 C12,15.581722 15.581722,12 20,12 C24.418278,12 28,15.581722 28,20 C28,24.418278 24.418278,28 20,28 Z M20,26 C23.3137085,26 26,23.3137085 26,20 C26,16.6862915 23.3137085,14 20,14 C16.6862915,14 14,16.6862915 14,20 C14,23.3137085 16.6862915,26 20,26 Z" id="Oval-2"></path>
            <path d="M20,68 C15.581722,68 12,64.418278 12,60 C12,55.581722 15.581722,52 20,52 C24.418278,52 28,55.581722 28,60 C28,64.418278 24.418278,68 20,68 Z M20,66 C23.3137085,66 26,63.3137085 26,60 C26,56.6862915 23.3137085,54 20,54 C16.6862915,54 14,56.6862915 14,60 C14,63.3137085 16.6862915,66 20,66 Z" id="Oval-2-Copy"></path>
            <g id="Group-2" transform="translate(16.000000, 56.000000)">
                <polygon id="Line" transform="translate(4.000000, 4.000000) rotate(45.000000) translate(-4.000000, -4.000000) " points="3 0 3 8 5 8 5 0"></polygon>
                <polygon id="Line-Copy" transform="translate(4.000000, 4.000000) rotate(-45.000000) translate(-4.000000, -4.000000) " points="3 0 3 8 5 8 5 0"></polygon>
            </g>
        </g>
    </g>
</svg>