<?xml version="1.0" encoding="UTF-8"?>
<svg width="16px" height="16px" viewBox="0 0 16 16" version="1.1" xmlns="http://www.w3.org/2000/svg" xmlns:xlink="http://www.w3.org/1999/xlink">
    <!-- Generator: Sketch 42 (36781) - http://www.bohemiancoding.com/sketch -->
    <title>icMute Copy</title>
    <desc>Created with Sketch.</desc>
    <defs></defs>
    <g id="Symbols" stroke="none" stroke-width="1" fill="none" fill-rule="evenodd">
        <g id="icMute-Copy" fill-rule="nonzero" fill="#FFFFFF">
            <path d="M1,12 C0.44771525,12 0,11.5522847 0,11 L0,5 C0,4.44771525 0.44771525,4 1,4 L2.58578644,4 L6.29289322,0.292893219 C6.92285808,-0.337071642 8,0.109095149 8,1 L8,15 C8,15.8909049 6.92285808,16.3370716 6.29289322,15.7071068 L2.58578644,12 L1,12 Z M3,10 C3.26521649,10 3.5195704,10.1053568 3.70710678,10.2928932 L6,12.5857864 L6,3.41421356 L3.70710678,5.70710678 C3.5195704,5.89464316 3.26521649,6 3,6 L2,6 L2,10 L3,10 Z" id="Combined-Shape"></path>
            <g id="Group-2" transform="translate(8.000000, 4.000000)">
                <polygon id="Line" transform="translate(4.000000, 4.000000) rotate(45.000000) translate(-4.000000, -4.000000) " points="3 0 3 8 5 8 5 0"></polygon>
                <polygon id="Line-Copy" transform="translate(4.000000, 4.000000) rotate(-45.000000) translate(-4.000000, -4.000000) " points="3 0 3 8 5 8 5 0"></polygon>
            </g>
        </g>
    </g>
</svg>