<svg id="Layer_1" data-name="Layer 1" xmlns="http://www.w3.org/2000/svg" width="237.85" height="264.38" viewBox="0 0 237.85 264.38"><defs><style>.cls-1{fill:#fff;}</style></defs><title>shrineCircular</title><path class="cls-1" d="M148.64,13.32l-3.5,3.09q-1.85-2.57-3.76-2.57a2.31,2.31,0,0,0-1.52.5,1.46,1.46,0,0,0-.59,1.12,1.94,1.94,0,0,0,.42,1.18,31.73,31.73,0,0,0,3.47,3.19c1.81,1.51,2.9,2.46,3.28,2.85a9.92,9.92,0,0,1,2,2.78,6.93,6.93,0,0,1,.6,2.9A6.65,6.65,0,0,1,147,33.41a7.73,7.73,0,0,1-5.51,2,8.18,8.18,0,0,1-4.62-1.3A10.29,10.29,0,0,1,133.46,30l4-2.4q1.79,3.29,4.13,3.29a3,3,0,0,0,2-.71,2.11,2.11,0,0,0,.83-1.64,2.82,2.82,0,0,0-.62-1.69,17.86,17.86,0,0,0-2.76-2.58,27.74,27.74,0,0,1-5.24-5.11,6.5,6.5,0,0,1-1.18-3.59,5.87,5.87,0,0,1,2-4.43,6.83,6.83,0,0,1,4.86-1.85,7.67,7.67,0,0,1,3.54.86A12.9,12.9,0,0,1,148.64,13.32Z" transform="translate(-22.57 -9.31)"/><path class="cls-1" d="M24.49,81.19l6.78-11.74,4,2.31-4.43,7.68,3.89,2.25L39.16,74l3.94,2.27L38.66,84l5.66,3.27,4.43-7.68,4,2.32L46,93.61Z" transform="translate(-22.57 -9.31)"/><path class="cls-1" d="M32.52,216.36l-2.27-3.93L39.1,195l-14.16,8.17-2.36-4.1,21.52-12.42,2.27,3.94L37.56,208l14.11-8.15,2.36,4.1Z" transform="translate(-22.57 -9.31)"/><path class="cls-1" d="M144.1,273.69h-4.7V248.84h4.7Z" transform="translate(-22.57 -9.31)"/><path class="cls-1" d="M259.41,201.8l-2.51,4.34a16.65,16.65,0,0,1-3.56,4.71,6,6,0,0,1-3.52,1.21,7.47,7.47,0,0,1-4-1.1,6.86,6.86,0,0,1-3-3.07,7.07,7.07,0,0,1-.39-4.31l-12.51-.43,2.58-4.48,11.91.43.22-.38-9.11-5.26,2.36-4.1ZM248.63,201l-.74,1.28a5.78,5.78,0,0,0-1,3,2.22,2.22,0,0,0,1.28,1.72,2.39,2.39,0,0,0,1.44.35,2.36,2.36,0,0,0,1.32-.55,8.51,8.51,0,0,0,1.52-2.11l.65-1.12Z" transform="translate(-22.57 -9.31)"/><path class="cls-1" d="M251.49,68.13l2.4,4.15L245.78,77l4.15,7.18L258,79.47l2.39,4.14L238.91,96l-2.39-4.14L246,86.44l-4.15-7.18-9.43,5.45L230,80.55Z" transform="translate(-22.57 -9.31)"/></svg>